<svg width="581" height="632" viewBox="0 0 581 632" fill="none" xmlns="http://www.w3.org/2000/svg">
<path fill-rule="evenodd" clip-rule="evenodd" d="M447.981 1.69757C437.159 -1.66074 423.293 -0.312551 413.739 8.2353C404.141 0.0594139 390.755 -1.73757 379.736 1.69971C354.604 9.5246 346.861 37.567 353.871 58.7338C359.512 75.7135 371.678 88.2582 383.445 96.4901C389.352 100.622 395.272 103.75 400.435 105.863C405.402 107.896 410.257 109.235 413.892 109.235C417.546 109.235 422.433 107.862 427.413 105.805C432.597 103.664 438.541 100.505 444.462 96.3523C456.245 88.0894 468.425 75.5422 473.901 58.7136C480.9 37.5386 473.094 9.51745 447.981 1.69757ZM436.753 23.1312C433.482 22.8062 430.558 25.1073 430.222 28.2709C429.886 31.4344 432.265 34.2625 435.536 34.5875C437.629 34.7954 439.046 35.6375 439.977 36.7764C440.946 37.9622 441.703 39.8692 441.608 42.6128C441.498 45.7912 444.072 48.4543 447.359 48.5609C450.645 48.6676 453.398 46.1774 453.509 42.999C453.681 38.0207 452.325 33.3115 449.317 29.633C446.271 25.9075 441.847 23.6373 436.753 23.1312Z" fill="url(#paint0_linear_3418_117)"/>
<path d="M477.214 284.332C477.077 335.254 476.921 392.627 442.741 450.126C318.231 639.218 90.3528 473.064 114.453 380.755C126.95 347.59 163.868 343.749 187.409 356.532C194.834 362.701 201.274 371.375 208.197 380.699C209.308 382.195 210.431 383.708 211.573 385.23C214.707 390.149 218.602 395.281 224.032 400.694C231.797 409.384 240.878 417.506 252.467 423.556C260.29 427.998 268.57 431.03 276.851 432.858C296.454 438.639 312.963 436.999 326.584 431.056C363.687 418.916 387.979 363.046 382.719 301.471C382.122 268.52 373.376 239.348 359.04 214.547C359.099 214.554 359.157 214.561 359.216 214.568C358.525 213.476 357.831 212.395 357.132 211.326C348.143 196.514 337.14 183.32 324.692 171.876C271.585 120.735 208.129 113.733 174.503 119.401C-24.2225 137.687 -59.6939 430.346 101.6 568.122C218.924 668.34 468.416 662.698 554.213 463.946C584.357 406.203 582.434 344.396 579.379 246.195C579.035 235.111 578.676 223.563 578.346 211.505V126.124C557.671 125.806 519.468 134.984 495.682 168.81C493.092 172.145 490.715 175.712 488.599 179.523C480.347 190.277 472.308 212.942 477.379 262.494C477.254 269.622 477.234 276.91 477.214 284.332Z" fill="url(#paint1_linear_3418_117)"/>
<defs>
<linearGradient id="paint0_linear_3418_117" x1="289.869" y1="58.8107" x2="290.499" y2="632" gradientUnits="userSpaceOnUse">
<stop stop-color="#70DBE3"/>
<stop offset="0.335" stop-color="#52ACEE"/>
<stop offset="1" stop-color="#1639F4"/>
</linearGradient>
<linearGradient id="paint1_linear_3418_117" x1="289.869" y1="58.8107" x2="290.499" y2="632" gradientUnits="userSpaceOnUse">
<stop stop-color="#70DBE3"/>
<stop offset="0.335" stop-color="#52ACEE"/>
<stop offset="1" stop-color="#1639F4"/>
</linearGradient>
</defs>
</svg>
